<svg viewBox="0 0 512 512" xmlns="http://www.w3.org/2000/svg" fill-rule="evenodd" clip-rule="evenodd" stroke-linejoin="round" stroke-miterlimit="2"><g fill-rule="nonzero"><path d="M6 221.092C6 119.718 6 69 37.5 37.5S119.717 6 221.091 6h69.813C392.31 6 442.998 6 474.498 37.5s31.5 82.219 31.5 183.593v69.813c0 101.406 0 152.093-31.5 183.593s-82.187 31.5-183.593 31.5h-69.813c-101.374 0-152.093 0-183.593-31.5S6 392.311 6 290.905v-69.813z" fill="#ffa8cd"/><path d="M375.28 96.311h-69.344c0 57.032-34.875 108.125-87.906 144.625l-20.844 14.594V96.31h-72.03v319.375h72.03V257.374l119.187 158.312h87.906L289.624 264.217c52.124-37.875 86.124-96.718 85.656-167.906z" fill="#0b051d"/></g></svg>